<svg xmlns="http://www.w3.org/2000/svg" viewBox="0 0 370 370" enable-background="new 0 0 370 370"><g><path d="M221.6 370h-73.2c-5.5 0-10-4.5-10-10v-32.9c-7.2-2.4-14.2-5.2-20.9-8.7l-23.3 23.3c-3.9 3.9-10.2 3.9-14.1 0l-51.8-51.8c-1.9-1.9-2.9-4.4-2.9-7.1s1.1-5.2 2.9-7.1l23.3-23.3c-3.4-6.7-6.3-13.7-8.7-20.9h-32.9c-5.5 0-10-4.5-10-10v-73.2c0-5.5 4.5-10 10-10h32.9c2.4-7.2 5.2-14.2 8.7-20.9l-23.3-23.2c-3.9-3.9-3.9-10.2 0-14.1l51.8-51.8c3.9-3.9 10.2-3.9 14.1 0l23.3 23.3c6.7-3.4 13.7-6.3 20.9-8.7v-32.9c0-5.5 4.5-10 10-10h73.2c5.5 0 10 4.5 10 10v32.9c7.2 2.4 14.2 5.2 20.9 8.7l23.3-23.3c1.9-1.9 4.4-2.9 7.1-2.9s5.2 1.1 7.1 2.9l51.8 51.8c1.9 1.9 2.9 4.4 2.9 7.1s-1.1 5.2-2.9 7.1l-23.3 23.3c3.4 6.7 6.3 13.7 8.7 20.9h32.8c5.5 0 10 4.5 10 10v73.2c0 5.5-4.5 10-10 10h-32.9c-2.4 7.2-5.2 14.2-8.7 20.9l23.3 23.3c3.9 3.9 3.9 10.2 0 14.1l-51.8 51.8c-1.9 1.9-4.4 2.9-7.1 2.9-2.7 0-5.2-1.1-7.1-2.9l-23.3-23.3c-6.7 3.4-13.7 6.3-20.9 8.7v32.8c.1 5.5-4.4 10-9.9 10zm-63.2-20h53.2v-30.4c0-4.5 3-8.5 7.4-9.7 10.6-2.9 20.8-7.1 30.4-12.6 3.9-2.2 8.9-1.6 12 1.6l21.5 21.5 37.6-37.6-21.5-21.4c-3.2-3.2-3.8-8.1-1.6-12 5.5-9.5 9.7-19.7 12.6-30.4 1.2-4.4 5.1-7.4 9.7-7.4h30.3v-53.2h-30.4c-4.5 0-8.5-3-9.7-7.4-2.9-10.6-7.1-20.8-12.6-30.4-2.2-3.9-1.6-8.9 1.6-12l21.5-21.5-37.6-37.6-21.4 21.5c-3.2 3.2-8.1 3.9-12 1.6-9.5-5.5-19.7-9.7-30.4-12.6-4.4-1.2-7.4-5.1-7.4-9.7v-30.3h-53.2v30.4c0 4.5-3 8.5-7.4 9.7-10.6 2.9-20.8 7.1-30.4 12.6-3.9 2.2-8.9 1.6-12-1.6l-21.5-21.6-37.6 37.6 21.5 21.5c3.2 3.2 3.8 8.1 1.6 12-5.5 9.5-9.7 19.7-12.6 30.4-1.2 4.4-5.1 7.4-9.7 7.4h-30.3v53.2h30.4c4.5 0 8.5 3 9.7 7.4 2.9 10.6 7.1 20.8 12.6 30.4 2.2 3.9 1.6 8.9-1.6 12l-21.5 21.5 37.6 37.6 21.5-21.5c3.2-3.2 8.1-3.8 12-1.6 9.5 5.5 19.7 9.7 30.4 12.6 4.4 1.2 7.4 5.1 7.4 9.7v30.3zM182.6 276.9c-50.6 0-91.9-41.2-91.9-91.9 0-50.6 41.2-91.9 91.9-91.9 50.6 0 91.9 41.2 91.9 91.9 0 50.6-41.2 91.9-91.9 91.9zm0-163.8c-39.6 0-71.9 32.2-71.9 71.9s32.2 71.9 71.9 71.9c39.6 0 71.9-32.2 71.9-71.9s-32.3-71.9-71.9-71.9z"/></g></svg>
