<?xml version="1.0" encoding="utf-8"?>
<!-- Generator: Adobe Illustrator 22.1.0, SVG Export Plug-In . SVG Version: 6.00 Build 0)  -->
<svg version="1.1" id="Ebene_1" xmlns="http://www.w3.org/2000/svg" xmlns:xlink="http://www.w3.org/1999/xlink" x="0px" y="0px"
	 viewBox="0 0 368.1 300.4" style="enable-background:new 0 0 368.1 300.4;" xml:space="preserve">
<g>
	<path d="M62.5,300.4c-4.6,0-8.7-3.1-9.7-7.8L0.3,64.8C-1,59.4,2.4,54,7.8,52.8l74.5-17.2c3.4-0.8,7,0.3,9.5,2.8
		c2.4,2.5,3.4,6.2,2.4,9.6c-6.2,22.2-6.5,30.7-5.8,34c5.9,25.6,29.8,41.2,54.3,35.5c12-2.8,22-10,28.1-20.4
		c6.2-10.4,8-22.9,5.1-35.3c-0.8-3.3-4.9-10.8-20.1-28.1c-2.3-2.6-3.1-6.3-2-9.7c1.1-3.4,3.8-5.9,7.3-6.7l74.5-17.2
		c2.6-0.6,5.3-0.1,7.5,1.3c2.2,1.4,3.8,3.6,4.4,6.2l14,60.6c10.2-8.2,18.6-13,25.1-14.5l0,0c17.4-4,35.2-1.4,50,7.4
		c15.1,9,25.7,23.5,29.7,40.9c8.2,35.5-14,69.9-50.5,78.3c-6.5,1.5-16.2,0.8-29-2.1l13.2,57.3c0.6,2.6,0.1,5.3-1.3,7.5
		c-1.4,2.2-3.6,3.8-6.2,4.4L64.8,300.1C64,300.3,63.3,300.4,62.5,300.4z M22,70l48,208.3l208.3-48l-14.7-63.7
		c-0.8-3.5,0.3-7.1,2.9-9.6c2.6-2.4,6.3-3.3,9.7-2.3c19.6,5.9,31.1,7,35.1,6.1c25.6-5.9,41.2-29.8,35.5-54.3
		c-2.8-12-10-22-20.4-28.1c-10.4-6.2-22.9-8-35.3-5.1l0,0c-3.9,0.9-13.8,6.9-28.8,20.8c-2.6,2.4-6.3,3.3-9.7,2.2
		c-3.4-1-6-3.8-6.8-7.3l-15.5-67l-48.8,11.3c6.7,8.5,12.3,17,13.9,24.1c4,17.4,1.4,35.2-7.4,50c-9,15.1-23.5,25.7-40.9,29.7
		c-5,1.1-9.9,1.7-14.8,1.7c-29.8,0-56.3-20.8-63.5-52.2c-1.6-7.1-0.4-17.2,1.9-27.8L22,70z M288.9,63.5L288.9,63.5L288.9,63.5z"/>
</g>
</svg>
