<svg xmlns="http://www.w3.org/2000/svg" viewBox="0 0 383 378.4" enable-background="new 0 0 383 378.4"><path d="M375.5 88.1l-48.6-12.6h-.1l-43.7-11.3h-.1l-43.7-11.3-43.7-11.3-43.7-11.3h-.1l-87.4-22.8-27.7-7.2c-2.6-.7-5.3-.3-7.6 1.1-2.3 1.3-3.9 3.5-4.6 6.1l-13 50.1c-1.4 5.3 1.8 10.8 7.2 12.2l47.7 12.4 43.7 11.3 87.5 22.7 43.8 11.3 40.2 10.4h-271.59999999999997c-5.5 0-10 4.5-10 10v220.5c0 5.5 4.5 10 10 10h350c5.5 0 10-4.5 10-10v-219.2l12.7-48.8c1.3-5.4-1.9-10.9-7.2-12.3zm-95.3 101.5l12.9-31.7h23.6l-12.9 31.7h-23.6zm-45.2 0l12.9-31.7h23.6l-12.9 31.7h-23.6zm-45.2 0l12.9-31.7h23.6l-12.9 31.7h-23.6zm-45.2 0l12.9-31.7h23.6l-12.9 31.7h-23.6zm-45.2 0l12.9-31.7h23.6l-12.9 31.7h-23.6zm-45.2 0l12.9-31.7h23.6l-12.9 31.7h-23.6zm198.9-79.8l-4.5-33.9 22.9 5.9 4.5 33.9-22.9-5.9zm-43.7-11.3l-4.5-33.9 22.9 5.9 4.5 33.9-22.9-5.9zm-43.8-11.3l-4.5-33.9 22.9 5.9 4.5 33.9-22.9-5.9zm-43.8-11.4l-4.5-33.9 22.9 5.9 4.5 33.9-22.9-5.9zm-43.7-11.3l-4.5-33.9 22.9 5.9 4.5 33.9-22.9-5.9zm214.3 22.8l22.9 5.9 4.5 33.9-22.9-5.9-4.5-33.9zm45.9 70.6h11.7v31.7h-24.6l12.9-31.7zm14.5-22.2l-12.2-3.2-4.5-33.9 24.7 6.4-8 30.7zm-311.5-113.5l11.3 2.9 4.5 33.9-23.8-6.2 8-30.6zm4.2 135.7l-12.9 31.7h-12.6v-31.7h25.5zm-25.5 200.5v-148.8h329.99999999999994v148.8h-330z"/></svg>
