<svg xmlns="http://www.w3.org/2000/svg" viewBox="0 0 310.4 370" enable-background="new 0 0 310.4 370"><path d="M310.2 273.5v-200c.3-1.3.3-2.7 0-4.2v-59.3c0-3.1-1.4-6-3.8-7.9-2.4-1.9-5.6-2.6-8.5-1.9l-206.7 50.4c-4.5 1.1-7.6 5.1-7.6 9.7v217c-8.8-6.9-19.8-10.9-31.8-10.9-28.6 0-51.8 23.3-51.8 51.8s23.2 51.8 51.8 51.8 51.8-23.2 51.8-51.8v-188.5l186.6-45.4v151.3c-8.8-6.8-19.8-10.9-31.7-10.9-28.6 0-51.8 23.2-51.8 51.8s23.2 51.8 51.8 51.8c27.2 0 49.5-21 51.6-47.7.1-.3.1-.7.1-1.1v-.1c.1-1 .1-1.9.1-2.9s0-2-.1-3zm-258.4 76.5c-17.5 0-31.8-14.3-31.8-31.8s14.3-31.8 31.8-31.8 31.8 14.2 31.8 31.8c0 17.5-14.3 31.8-31.8 31.8zm51.8-240.9v-40.9l186.6-45.5v40.9l-186.6 45.5zm154.9 199.1c-17.5 0-31.8-14.3-31.8-31.8s14.3-31.8 31.8-31.8 31.8 14.3 31.8 31.8-14.3 31.8-31.8 31.8z"/></svg>
