<svg xmlns="http://www.w3.org/2000/svg" data-name="Layer 1" viewBox="0 0 100 125" x="0px" y="0px"><title>cd</title><path d="M50,20A30,30,0,1,0,80,50,30,30,0,0,0,50,20Zm0,40.66A10.66,10.66,0,1,1,60.66,50,10.67,10.67,0,0,1,50,60.66Zm17,1.72a2,2,0,0,1-2.8.43A2,2,0,0,1,63.74,60,16.93,16.93,0,0,0,67,50.56a2,2,0,0,1,2-1.93h.07A2,2,0,0,1,71,50.69,21,21,0,0,1,67,62.38Z"/><text x="0" y="115" fill="#000000" font-size="5px" font-weight="bold" font-family="'Helvetica Neue', Helvetica, Arial-Unicode, Arial, Sans-serif">Created by Mello</text><text x="0" y="120" fill="#000000" font-size="5px" font-weight="bold" font-family="'Helvetica Neue', Helvetica, Arial-Unicode, Arial, Sans-serif">from the Noun Project</text></svg>