<?xml version="1.0" encoding="utf-8"?>
<!-- Generator: Adobe Illustrator 22.1.0, SVG Export Plug-In . SVG Version: 6.00 Build 0)  -->
<svg version="1.1" id="Ebene_1" xmlns="http://www.w3.org/2000/svg" xmlns:xlink="http://www.w3.org/1999/xlink" x="0px" y="0px"
	 viewBox="0 0 414.8 431.3" style="enable-background:new 0 0 414.8 431.3;" xml:space="preserve">
<path d="M379,304.9c-19.8-29.1-46.3-52.5-77.4-68.3c11.2-10.7,20.7-23.2,27.8-37c9.9-19.2,15.1-40.8,15.1-62.5
	c0-75.6-61.5-137-137-137s-137,61.5-137,137c0,21.7,5.2,43.3,15.1,62.5c7.1,13.7,16.5,26.3,27.8,37c-31.1,15.8-57.6,39.2-77.4,68.3
	C12.4,339.3,0,379.6,0,421.3c0,5.5,4.5,10,10,10h394.8c5.5,0,10-4.5,10-10C414.8,379.6,402.4,339.3,379,304.9z M90.8,137
	c0-64.3,52.3-116.6,116.6-116.6S324,72.7,324,137c0,37.3-17.2,71.3-47,93.6l0,0c-20.2,15-44.2,23-69.6,23s-49.3-8-69.6-23
	C108,208.3,90.8,174.3,90.8,137z M20.3,411.3c1.8-34.1,12.8-66.9,32-95.2c19.6-28.8,46.5-51.5,78.1-65.7
	c22.7,15.5,49.2,23.7,77,23.7s54.2-8.2,77-23.7c31.6,14.2,58.5,36.9,78.1,65.7c19.3,28.3,30.2,61.1,32,95.2H20.3z"/>
</svg>
