<svg xmlns="http://www.w3.org/2000/svg" viewBox="0 0 414.4 286.3" enable-background="new 0 0 414.4 286.3"><path d="M207.2 49.7c-56.1 0-101.8 45.7-101.8 101.8 0 56.1 45.7 101.8 101.8 101.8 56.1 0 101.8-45.7 101.8-101.8 0-56.2-45.7-101.8-101.8-101.8zm0 183.6c-45.1 0-81.8-36.7-81.8-81.8 0-45.1 36.7-81.8 81.8-81.8 45.1 0 81.8 36.7 81.8 81.8 0 45.1-36.7 81.8-81.8 81.8zM396.5 42.1h-89.2l-11.8-35.3c-1.3-4-5.1-6.8-9.5-6.8h-157.7c-4.2 0-7.9 2.6-9.4 6.6l-13 35.5h-88c-9.9 0-17.9 8-17.9 17.9v208.4c0 9.9 8 17.9 17.9 17.9h378.6c9.9 0 17.9-8 17.9-17.9v-208.4c0-9.9-8.1-17.9-17.9-17.9zm-2.1 224.2h-374.4v-204.2h92.9c4.2 0 7.9-2.6 9.4-6.6l13-35.5h143.5l11.7 35.2c1.4 4.1 5.2 6.8 9.5 6.8h94.3v204.3z"/></svg>
