<?xml version="1.0" encoding="utf-8"?>
<!-- Generator: Adobe Illustrator 22.1.0, SVG Export Plug-In . SVG Version: 6.00 Build 0)  -->
<svg version="1.1" id="Ebene_1" xmlns="http://www.w3.org/2000/svg" xmlns:xlink="http://www.w3.org/1999/xlink" x="0px" y="0px"
	 viewBox="0 0 374.8 374.8" style="enable-background:new 0 0 374.8 374.8;" xml:space="preserve">
<g>
	<path d="M187.4,279.3c-50.6,0-91.9-41.2-91.9-91.9c0-50.6,41.2-91.9,91.9-91.9c50.6,0,91.9,41.2,91.9,91.9
		C279.3,238,238.1,279.3,187.4,279.3z M187.4,115.5c-39.6,0-71.9,32.2-71.9,71.9s32.2,71.9,71.9,71.9c39.6,0,71.9-32.2,71.9-71.9
		S227,115.5,187.4,115.5z"/>
	<g>
		<path d="M187.4,374.8C84.2,374.8,0,290.8,0,187.4C0,84.2,84,0,187.4,0c103.2,0,187.4,84,187.4,187.4
			C374.8,290.6,290.8,374.8,187.4,374.8z M187.4,20.3c-92,0-167.1,74.8-167.1,167.1s74.8,167.1,167.1,167.1
			c92,0,167.1-74.8,167.1-167.1S279.4,20.3,187.4,20.3z"/>
	</g>
</g>
</svg>
