<?xml version="1.0" encoding="utf-8"?>
<!-- Generator: Adobe Illustrator 22.1.0, SVG Export Plug-In . SVG Version: 6.00 Build 0)  -->
<svg version="1.1" id="Ebene_1" xmlns="http://www.w3.org/2000/svg" xmlns:xlink="http://www.w3.org/1999/xlink" x="0px" y="0px"
	 viewBox="0 0 301 379.4" style="enable-background:new 0 0 301 379.4;" xml:space="preserve">
<style type="text/css">
	.st0{fill:none;stroke:#1D1D1B;stroke-width:20;stroke-linecap:round;stroke-linejoin:round;}
</style>
<title>reading</title>
<path class="st0" d="M43.6,76.9"/>
<path class="st0" d="M64.6,302.5"/>
<line class="st0" x1="64.6" y1="302.5" x2="291" y2="302.5"/>
<path class="st0" d="M64.6,10H291v359.4H43.6c-18.5,0.1-33.5-14.8-33.6-33.3c-0.1-18.5,14.8-33.5,33.3-33.6c0.1,0,0.2,0,0.4,0h20.9
	L68.2,10H43.6c-18.5,0-33.5,15-33.5,33.5v292.5"/>
<line class="st0" x1="103.4" y1="51.7" x2="206.1" y2="51.7"/>
<line class="st0" x1="103.4" y1="93.8" x2="225.8" y2="93.8"/>
<line class="st0" x1="103.4" y1="220" x2="243" y2="220"/>
<line class="st0" x1="103.4" y1="135.9" x2="197.1" y2="135.9"/>
<line class="st0" x1="103.4" y1="262.1" x2="216.8" y2="262.1"/>
<line class="st0" x1="103.4" y1="177.9" x2="252.1" y2="177.9"/>
</svg>
