<svg xmlns="http://www.w3.org/2000/svg" viewBox="0 0 323.4 413.5" enable-background="new 0 0 323.4 413.5"><path d="M313.4 0h-303.4c-5.5 0-10 4.5-10 10v393.5c0 5.5 4.5 10 10 10h303.4c5.5 0 10-4.5 10-10v-393.5c0-5.5-4.5-10-10-10zm-10 393.5h-283.4v-373.5h283.4v373.5zM45 132.5h233.4c5.5 0 10-4.5 10-10v-78.3c0-5.5-4.5-10-10-10h-233.4c-5.5 0-10 4.5-10 10v78.4c0 5.4 4.4 9.9 10 9.9zm133.1-78.3c-3.3 6.1-9.4 10.1-16.4 10.1s-13.1-4.1-16.4-10.1h32.8zm-123.1 0h69c4.4 17.3 19.6 30.1 37.7 30.1s33.4-12.8 37.7-30.1h69v58.4h-213.4v-58.4zM45 253.3h233.4c5.5 0 10-4.5 10-10v-78.4c0-5.5-4.5-10-10-10h-233.4c-5.5 0-10 4.5-10 10v78.4c0 5.5 4.4 10 10 10zm133.1-78.4c-3.3 6-9.4 10.1-16.4 10.1s-13.1-4.1-16.4-10.1h32.8zm-123.1 0h69c4.4 17.3 19.6 30.1 37.7 30.1s33.3-12.8 37.7-30.1h69v58.4h-213.4v-58.4zM45 374h233.4c5.5 0 10-4.5 10-10v-78.4c0-5.5-4.5-10-10-10h-233.4c-5.5 0-10 4.5-10 10v78.4c0 5.5 4.4 10 10 10zm133.2-78.3c-3.3 6.1-9.4 10.3-16.5 10.3s-13.2-4.2-16.5-10.3h33zm-123.2 0h68.9c4.3 17.4 19.6 30.3 37.8 30.3s33.5-12.9 37.8-30.3h68.9v58.3h-213.4v-58.3z"/></svg>
