<svg xmlns="http://www.w3.org/2000/svg" viewBox="0 0 370 372.7" enable-background="new 0 0 370 372.7"><path d="M360 169.2h-26.4c.8-6.2 1.2-12.5 1.2-18.8 0-82.9-67.5-150.4-150.4-150.4s-150.4 67.5-150.4 150.4c0 6.2.4 12.5 1.2 18.8h-25.2c-5.5 0-10 4.5-10 10v183.5c0 5.5 4.5 10 10 10h350c5.5 0 10-4.5 10-10v-183.5c0-5.5-4.5-10-10-10zm-306-18.8c0-71.9 58.5-130.4 130.4-130.4s130.4 58.5 130.4 130.4c0 6.3-.5 12.6-1.4 18.8h-95.7c3.2-5.6 5-12 5-18.8 0-21.1-17.1-38.2-38.2-38.2s-38.2 17.1-38.2 38.2c0 6.8 1.8 13.2 5 18.8h-95.9c-.9-6.4-1.4-12.7-1.4-18.8zm112.3 0c0-10 8.2-18.2 18.2-18.2s18.2 8.2 18.2 18.2-8.2 18.2-18.2 18.2-18.2-8.2-18.2-18.2zm183.7 202.3h-330v-163.5h329.9v163.5z"/></svg>
