<svg xmlns="http://www.w3.org/2000/svg" viewBox="0 0 318.9 370" enable-background="new 0 0 318.9 370"><path d="M314 9.6c-.2-5.4-4.6-9.6-10-9.6h-289.90000000000003c-.2 0-.3 0-.5.1-.2 0-.4 0-.5.1l-.4.1-.5.1-.4.1-.5.2-.4.2c-.3.1-.4.1-.6.2-.1.1-.3.2-.4.2l-.4.3c-.2.1-.3.2-.4.3l-.4.3-.3.2-.4.4-.3.3c-.2.1-.3.3-.4.4l-.3.3-.3.5-.2.3-.3.5c-.1.1-.1.2-.2.4-.1.1-.2.3-.2.4-.1.2-.2.3-.2.5l-.2.4-.1.5-.1.5-.1.5c-.1.1-.1.3-.1.5v.8l-5 113.1c-.1 2.7.9 5.4 2.8 7.3 1.9 2 4.5 3.1 7.2 3.1h33.2c4.5 0 8.5-3 9.6-7.4 1.4-5 2.6-9.6 3.7-13.9 5.6-21.1 9-33.8 16.2-39.8 6.1-5 16.9-7.6 39.8-8.9v250h-30.1c-5.5 0-10 4.5-10 10v36.9c0 5.5 4.5 10 10 10h154.2c5.5 0 10-4.5 10-10v-36.9c0-5.5-4.5-10-10-10h-30.1v-250c22.8 1.3 33.7 3.8 39.8 8.9 7.2 6 10.6 18.7 16.1 39.8 1.1 4.3 2.4 8.9 3.7 13.9 1.2 4.4 5.1 7.4 9.6 7.4h33.2c2.7 0 5.3-1.1 7.2-3.1 1.9-2 2.9-4.6 2.8-7.3l-4.9-113.1zm-30.6 103.5c-.6-2.2-1.1-4.3-1.7-6.4-6.6-25-10.5-40-22.7-50.1-12.4-10.2-30.6-12.7-62.1-13.9-2.7-.1-5.4.9-7.3 2.8-2 1.9-3.1 4.5-3.1 7.2v270.4c0 5.5 4.5 10 10 10h30.1v16.9h-134.2v-16.9h30.1c5.5 0 10-4.5 10-10v-270.4c0-2.7-1.1-5.3-3.1-7.2-2-1.9-4.6-2.9-7.3-2.8-31.5 1.2-49.8 3.7-62.1 13.9-12.2 10.1-16.1 25.1-22.7 50.1-.5 2.1-1.1 4.2-1.7 6.4h-15.2l4-93.1h270l4 93.1h-15z"/></svg>
